<svg width="372" height="66" viewBox="0 0 372 66" fill="none" xmlns="http://www.w3.org/2000/svg">
<path d="M0.1875 6.0625L1.1875 2.8125C1.22917 2.77083 1.54167 2.72917 2.125 2.6875C2.75 2.60417 3.5625 2.52083 4.5625 2.4375C5.5625 2.3125 6.6875 2.1875 7.9375 2.0625C9.1875 1.9375 10.4583 1.8125 11.75 1.6875C13.0833 1.5625 14.375 1.4375 15.625 1.3125C16.9167 1.1875 18.1042 1.0625 19.1875 0.9375C19.1875 0.9375 19.375 0.9375 19.75 0.9375C20.125 0.9375 20.5417 0.9375 21 0.9375C21.4583 0.9375 21.8958 0.9375 22.3125 0.9375C22.7292 0.9375 23 0.9375 23.125 0.9375C24.125 0.9375 24.8125 1.125 25.1875 1.5C25.5625 1.875 25.75 2.6875 25.75 3.9375L14.375 5.25C14.2917 7.875 14.3333 10.625 14.5 13.5C14.6667 16.375 14.875 19.2917 15.125 22.25C15.375 25.1667 15.6042 28.0625 15.8125 30.9375C16.0625 33.8125 16.1875 36.5625 16.1875 39.1875C16.1875 39.5625 16.0625 39.8333 15.8125 40C15.6042 40.125 15.3333 40.2083 15 40.25C14.7083 40.2917 14.3958 40.2708 14.0625 40.1875C13.7292 40.1458 13.4375 40.0833 13.1875 40C13.0625 39.4583 12.9375 38.5208 12.8125 37.1875C12.6875 35.8542 12.5625 34.2917 12.4375 32.5C12.3125 30.7083 12.1875 28.7708 12.0625 26.6875C11.9375 24.6042 11.8125 22.5208 11.6875 20.4375C11.5625 18.3542 11.4375 16.375 11.3125 14.5C11.1875 12.5833 11.0833 10.9167 11 9.5C10.9167 8.04167 10.8333 6.91667 10.75 6.125C10.7083 5.33333 10.6667 5.04167 10.625 5.25L0.1875 6.0625ZM25.1875 34.625C25.1875 32.25 25.8333 30.5208 27.125 29.4375C28.4583 28.3542 30.1875 27.8125 32.3125 27.8125C33.1458 27.8125 33.9167 27.8333 34.625 27.875C35.375 27.9167 36.0833 28.0208 36.75 28.1875C37.4167 28.3542 38.0625 28.6042 38.6875 28.9375C39.3542 29.2708 40.0417 29.75 40.75 30.375C40.75 30.25 40.75 30 40.75 29.625C40.7917 29.2083 40.8125 28.7708 40.8125 28.3125C40.8125 27.8542 40.8125 27.4375 40.8125 27.0625C40.8125 26.6458 40.8125 26.3542 40.8125 26.1875C40.7708 25.4375 40.75 24.4792 40.75 23.3125C40.75 22.1042 40.6458 20.875 40.4375 19.625C40.2708 18.375 39.8958 17.1875 39.3125 16.0625C38.7708 14.9375 37.875 14.0833 36.625 13.5C35.75 13.5 34.9375 13.6458 34.1875 13.9375C33.4375 14.2292 32.6875 14.5417 31.9375 14.875C31.1875 15.2083 30.4375 15.5208 29.6875 15.8125C28.9375 16.0625 28.125 16.1875 27.25 16.1875C27.25 15.1458 27.5625 14.2917 28.1875 13.625C28.8542 12.9167 29.6458 12.375 30.5625 12C31.4792 11.625 32.4375 11.375 33.4375 11.25C34.4375 11.125 35.3125 11.0625 36.0625 11.0625C36.8125 11.1875 37.5 11.3333 38.125 11.5C38.7917 11.6667 39.3958 12 39.9375 12.5C40.5208 13 41.0417 13.7708 41.5 14.8125C42 15.8125 42.4167 17.2292 42.75 19.0625C43.125 20.8958 43.4375 23.2292 43.6875 26.0625C43.9792 28.8542 44.2083 32.2917 44.375 36.375C44.4583 36.9167 44.2708 37.3958 43.8125 37.8125C43.3958 38.1875 42.8125 38.5208 42.0625 38.8125C41.3125 39.0625 40.4583 39.2917 39.5 39.5C38.5833 39.6667 37.6458 39.7917 36.6875 39.875C35.7292 39.9583 34.8125 40.0208 33.9375 40.0625C33.0625 40.1042 32.3333 40.125 31.75 40.125C31 40.125 30.2292 40 29.4375 39.75C28.6875 39.5 27.9792 39.1458 27.3125 38.6875C26.6875 38.1875 26.1667 37.6042 25.75 36.9375C25.375 36.2292 25.1875 35.4583 25.1875 34.625ZM33.3125 30.25C31.2292 30.8333 29.7708 31.5417 28.9375 32.375C28.1042 33.1667 27.7292 33.9375 27.8125 34.6875C27.9375 35.4375 28.4375 36.125 29.3125 36.75C30.1875 37.3333 31.25 37.7292 32.5 37.9375C33.75 38.1042 35.1042 38 36.5625 37.625C38.0208 37.2083 39.4167 36.4167 40.75 35.25C40.25 34.0417 39.75 33.125 39.25 32.5C38.75 31.8333 38.2083 31.3333 37.625 31C37.0417 30.6667 36.3958 30.4583 35.6875 30.375C34.9792 30.2917 34.1875 30.25 33.3125 30.25ZM50.125 34.9375C50.875 34.9375 51.5625 35.0833 52.1875 35.375C52.8542 35.6667 53.5 36 54.125 36.375C54.75 36.7083 55.375 37.0208 56 37.3125C56.6667 37.5625 57.375 37.6875 58.125 37.6875C59 37.6875 59.8958 37.5417 60.8125 37.25C61.7708 36.9167 62.6458 36.4792 63.4375 35.9375C64.2292 35.3542 64.875 34.6667 65.375 33.875C65.875 33.0417 66.125 32.1458 66.125 31.1875C66.1667 30.8958 66.1667 30.5417 66.125 30.125C66.125 29.7083 66 29.2917 65.75 28.875C65.5 28.4167 65.0833 28 64.5 27.625C63.9167 27.2083 63.0625 26.8958 61.9375 26.6875C60.8542 26.4792 59.4792 26.375 57.8125 26.375C56.1458 26.3333 54.0833 26.4792 51.625 26.8125C51 26.8125 50.3958 26.6458 49.8125 26.3125C49.2292 25.9375 48.7083 25.5 48.25 25C47.7917 24.4583 47.4167 23.8958 47.125 23.3125C46.8333 22.6875 46.6875 22.1042 46.6875 21.5625C46.6875 19.9375 47.0208 18.625 47.6875 17.625C48.3958 16.5833 49.2917 15.7708 50.375 15.1875C51.4583 14.5625 52.6667 14.125 54 13.875C55.3333 13.625 56.6875 13.5 58.0625 13.5C58.6875 13.5 59.3958 13.5417 60.1875 13.625C61.0208 13.6667 61.7708 13.8333 62.4375 14.125C63.1458 14.375 63.7292 14.7917 64.1875 15.375C64.6875 15.9583 64.9375 16.7708 64.9375 17.8125C64.8542 18.5208 64.7292 18.9583 64.5625 19.125C64.4375 19.25 64.2292 19.2083 63.9375 19C63.6875 18.75 63.375 18.4167 63 18C62.625 17.5833 62.1667 17.1875 61.625 16.8125C61.125 16.3958 60.5 16.0833 59.75 15.875C59.0417 15.6667 58.2292 15.6667 57.3125 15.875C56.3542 15.875 55.3958 15.9792 54.4375 16.1875C53.4792 16.3542 52.6042 16.6667 51.8125 17.125C51.0625 17.5833 50.4375 18.2083 49.9375 19C49.4792 19.7917 49.25 20.7917 49.25 22C49.25 22.625 49.5208 23.0625 50.0625 23.3125C50.6458 23.5208 51.3958 23.625 52.3125 23.625C53.2708 23.625 54.3333 23.6042 55.5 23.5625C56.7083 23.4792 57.9375 23.4375 59.1875 23.4375C60.4375 23.4375 61.6458 23.5417 62.8125 23.75C63.9792 23.9167 65 24.2917 65.875 24.875C66.7917 25.4167 67.5 26.2083 68 27.25C68.5 28.2917 68.6875 29.6458 68.5625 31.3125C68.5625 32.5208 68.2083 33.6667 67.5 34.75C66.8333 35.8333 65.9583 36.7917 64.875 37.625C63.8333 38.4167 62.6667 39.0417 61.375 39.5C60.0833 39.9583 58.8333 40.125 57.625 40C57.125 39.9583 56.4375 39.8333 55.5625 39.625C54.7292 39.375 53.8958 39.0417 53.0625 38.625C52.2708 38.2083 51.5833 37.7083 51 37.125C50.4167 36.5 50.125 35.7708 50.125 34.9375ZM79.125 17.3125C78.75 17.1875 78.2292 17.1458 77.5625 17.1875C76.9375 17.1875 76.25 17.2292 75.5 17.3125C74.7917 17.3542 74.1042 17.4167 73.4375 17.5C72.7708 17.5833 72.2083 17.625 71.75 17.625C71.5417 17.625 71.3958 17.3333 71.3125 16.75C71.2708 16.125 71.1875 15.2917 71.0625 14.25L79.875 13.625C80 12.1667 80.0833 11.125 80.125 10.5C80.1667 9.875 80.1667 9.35417 80.125 8.9375C80.125 8.47917 80.1042 7.97917 80.0625 7.4375C80.0625 6.85417 80.0625 5.95833 80.0625 4.75C81.1458 4.58333 81.9583 4.54167 82.5 4.625C83.0833 4.66667 83.4792 4.8125 83.6875 5.0625C83.8958 5.3125 83.9792 5.6875 83.9375 6.1875C83.9375 6.64583 83.875 7.22917 83.75 7.9375C83.6667 8.64583 83.5833 9.5 83.5 10.5C83.4583 11.5 83.5 12.625 83.625 13.875L91.125 13.625V16.6875C90.7917 16.6875 90.2708 16.7083 89.5625 16.75C88.8542 16.7917 88.0833 16.8333 87.25 16.875C86.4583 16.9167 85.7083 16.9583 85 17C84.3333 17.0417 83.8333 17.125 83.5 17.25C83.1667 18.75 82.8125 20.3542 82.4375 22.0625C82.0625 23.7708 81.8125 25.4583 81.6875 27.125C81.5625 28.7917 81.6042 30.3542 81.8125 31.8125C82.0208 33.2292 82.5417 34.4167 83.375 35.375C84.2083 36.2917 85.3958 36.9375 86.9375 37.3125C88.4792 37.6458 90.5208 37.5208 93.0625 36.9375C92.9792 37.5625 92.7292 38.0833 92.3125 38.5C91.9375 38.875 91.4792 39.1875 90.9375 39.4375C90.4375 39.6458 89.8958 39.8125 89.3125 39.9375C88.7292 40.0208 88.2083 40.0625 87.75 40.0625C85.625 40.0625 83.9375 39.6875 82.6875 38.9375C81.4375 38.1458 80.5 37.125 79.875 35.875C79.25 34.625 78.8542 33.2083 78.6875 31.625C78.5208 30 78.4583 28.3542 78.5 26.6875C78.5833 25.0208 78.7083 23.375 78.875 21.75C79.0417 20.125 79.125 18.6458 79.125 17.3125ZM107.375 65.625C107.375 63.5417 107.562 61.3958 107.938 59.1875C108.312 56.9792 108.688 54.7708 109.062 52.5625C109.479 50.3542 109.812 48.1458 110.062 45.9375C110.354 43.7292 110.396 41.5625 110.188 39.4375L94.625 13.0625C95.5417 12.2292 96.2708 11.7708 96.8125 11.6875C97.3542 11.5625 97.6667 11.5417 97.75 11.625C98.0417 12.0417 98.5208 12.8125 99.1875 13.9375C99.8958 15.0625 100.688 16.375 101.562 17.875C102.479 19.375 103.438 20.9583 104.438 22.625C105.438 24.2917 106.375 25.875 107.25 27.375C108.167 28.875 108.938 30.2083 109.562 31.375C110.229 32.5417 110.688 33.3542 110.938 33.8125L113.812 10.625L116.938 12.1875L110.188 65.8125L107.375 65.625ZM142.812 15.625C143.312 15.4167 143.75 15.375 144.125 15.5C144.5 15.625 144.812 15.8542 145.062 16.1875C145.312 16.5208 145.5 16.9167 145.625 17.375C145.75 17.7917 145.854 18.2083 145.938 18.625C146.479 17.7083 147.25 16.9792 148.25 16.4375C149.292 15.8542 150.396 15.4792 151.562 15.3125C152.729 15.1042 153.896 15.0625 155.062 15.1875C156.229 15.2708 157.208 15.5208 158 15.9375C158.833 16.3125 159.417 16.8542 159.75 17.5625C160.083 18.2292 160 19.0208 159.5 19.9375C158.417 19.3125 157.271 18.8125 156.062 18.4375C154.896 18.0625 153.75 17.9375 152.625 18.0625C151.5 18.1875 150.458 18.625 149.5 19.375C148.542 20.0833 147.75 21.2292 147.125 22.8125C146.5 24.3958 146.104 26.5 145.938 29.125C145.812 31.7083 146 34.9375 146.5 38.8125H144.125C144.125 38.8125 144.083 38.4792 144 37.8125C143.958 37.1042 143.896 36.1875 143.812 35.0625C143.771 33.9375 143.688 32.6875 143.562 31.3125C143.479 29.9375 143.396 28.5417 143.312 27.125C143.229 25.7083 143.146 24.3542 143.062 23.0625C143.021 21.7292 142.958 20.5833 142.875 19.625C142.875 19.5 142.854 19.25 142.812 18.875C142.812 18.5 142.812 18.1042 142.812 17.6875C142.812 17.2292 142.812 16.8125 142.812 16.4375C142.812 16.0625 142.812 15.7917 142.812 15.625ZM162.75 25.3125C162.75 24.0625 163.021 22.6875 163.562 21.1875C164.104 19.6458 164.833 18.2292 165.75 16.9375C166.708 15.6042 167.771 14.5 168.938 13.625C170.146 12.7083 171.396 12.25 172.688 12.25C173.396 12.25 174.083 12.3958 174.75 12.6875C175.458 12.9792 176.125 13.375 176.75 13.875C177.417 14.3333 178 14.875 178.5 15.5C179.042 16.0833 179.458 16.7083 179.75 17.375C180.042 18.0417 180.188 18.6875 180.188 19.3125C180.229 19.9375 180.062 20.4792 179.688 20.9375L166.5 23.375C166.333 23.4167 166.188 23.625 166.062 24C165.938 24.3333 165.833 24.7708 165.75 25.3125C165.667 25.8542 165.583 26.4583 165.5 27.125C165.458 27.75 165.417 28.375 165.375 29C165.333 29.5833 165.312 30.125 165.312 30.625C165.312 31.0833 165.312 31.4375 165.312 31.6875C165.312 32.8542 165.583 33.8125 166.125 34.5625C166.708 35.2708 167.438 35.8125 168.312 36.1875C169.188 36.5625 170.167 36.8125 171.25 36.9375C172.375 37.0625 173.479 37.125 174.562 37.125C175.646 37.125 176.667 37.0833 177.625 37C178.583 36.9167 179.375 36.875 180 36.875C180 37.0417 179.938 37.2292 179.812 37.4375C179.688 37.6458 179.542 37.8542 179.375 38.0625C179.208 38.2292 179.042 38.3958 178.875 38.5625C178.708 38.6875 178.604 38.7708 178.562 38.8125C178.229 38.8958 177.708 39.0208 177 39.1875C176.333 39.3125 175.604 39.4375 174.812 39.5625C174.062 39.6875 173.354 39.7917 172.688 39.875C172.021 39.9583 171.562 40 171.312 40C170.021 40.25 168.896 40.2292 167.938 39.9375C166.979 39.6458 166.167 39.1458 165.5 38.4375C164.833 37.7292 164.292 36.875 163.875 35.875C163.458 34.8333 163.146 33.7292 162.938 32.5625C162.729 31.3958 162.604 30.1875 162.562 28.9375C162.562 27.6875 162.625 26.4792 162.75 25.3125ZM171.812 14.625C171.438 14.625 170.938 14.8333 170.312 15.25C169.729 15.625 169.167 16.125 168.625 16.75C168.125 17.3333 167.688 17.9792 167.312 18.6875C166.979 19.3542 166.875 19.9375 167 20.4375C168.083 20.5625 169.208 20.5417 170.375 20.375C171.542 20.2083 172.604 19.9583 173.562 19.625C174.521 19.25 175.312 18.8333 175.938 18.375C176.562 17.875 176.854 17.375 176.812 16.875C176.812 16.375 176.417 15.9375 175.625 15.5625C174.875 15.1458 173.604 14.8333 171.812 14.625ZM186.688 34.9375C187.438 34.9375 188.125 35.0833 188.75 35.375C189.417 35.6667 190.062 36 190.688 36.375C191.312 36.7083 191.938 37.0208 192.562 37.3125C193.229 37.5625 193.938 37.6875 194.688 37.6875C195.562 37.6875 196.458 37.5417 197.375 37.25C198.333 36.9167 199.208 36.4792 200 35.9375C200.792 35.3542 201.438 34.6667 201.938 33.875C202.438 33.0417 202.688 32.1458 202.688 31.1875C202.729 30.8958 202.729 30.5417 202.688 30.125C202.688 29.7083 202.562 29.2917 202.312 28.875C202.062 28.4167 201.646 28 201.062 27.625C200.479 27.2083 199.625 26.8958 198.5 26.6875C197.417 26.4792 196.042 26.375 194.375 26.375C192.708 26.3333 190.646 26.4792 188.188 26.8125C187.562 26.8125 186.958 26.6458 186.375 26.3125C185.792 25.9375 185.271 25.5 184.812 25C184.354 24.4583 183.979 23.8958 183.688 23.3125C183.396 22.6875 183.25 22.1042 183.25 21.5625C183.25 19.9375 183.583 18.625 184.25 17.625C184.958 16.5833 185.854 15.7708 186.938 15.1875C188.021 14.5625 189.229 14.125 190.562 13.875C191.896 13.625 193.25 13.5 194.625 13.5C195.25 13.5 195.958 13.5417 196.75 13.625C197.583 13.6667 198.333 13.8333 199 14.125C199.708 14.375 200.292 14.7917 200.75 15.375C201.25 15.9583 201.5 16.7708 201.5 17.8125C201.417 18.5208 201.292 18.9583 201.125 19.125C201 19.25 200.792 19.2083 200.5 19C200.25 18.75 199.938 18.4167 199.562 18C199.188 17.5833 198.729 17.1875 198.188 16.8125C197.688 16.3958 197.062 16.0833 196.312 15.875C195.604 15.6667 194.792 15.6667 193.875 15.875C192.917 15.875 191.958 15.9792 191 16.1875C190.042 16.3542 189.167 16.6667 188.375 17.125C187.625 17.5833 187 18.2083 186.5 19C186.042 19.7917 185.812 20.7917 185.812 22C185.812 22.625 186.083 23.0625 186.625 23.3125C187.208 23.5208 187.958 23.625 188.875 23.625C189.833 23.625 190.896 23.6042 192.062 23.5625C193.271 23.4792 194.5 23.4375 195.75 23.4375C197 23.4375 198.208 23.5417 199.375 23.75C200.542 23.9167 201.562 24.2917 202.438 24.875C203.354 25.4167 204.062 26.2083 204.562 27.25C205.062 28.2917 205.25 29.6458 205.125 31.3125C205.125 32.5208 204.771 33.6667 204.062 34.75C203.396 35.8333 202.521 36.7917 201.438 37.625C200.396 38.4167 199.229 39.0417 197.938 39.5C196.646 39.9583 195.396 40.125 194.188 40C193.688 39.9583 193 39.8333 192.125 39.625C191.292 39.375 190.458 39.0417 189.625 38.625C188.833 38.2083 188.146 37.7083 187.562 37.125C186.979 36.5 186.688 35.7708 186.688 34.9375ZM215.688 17.3125C215.312 17.1875 214.792 17.1458 214.125 17.1875C213.5 17.1875 212.812 17.2292 212.062 17.3125C211.354 17.3542 210.667 17.4167 210 17.5C209.333 17.5833 208.771 17.625 208.312 17.625C208.104 17.625 207.958 17.3333 207.875 16.75C207.833 16.125 207.75 15.2917 207.625 14.25L216.438 13.625C216.562 12.1667 216.646 11.125 216.688 10.5C216.729 9.875 216.729 9.35417 216.688 8.9375C216.688 8.47917 216.667 7.97917 216.625 7.4375C216.625 6.85417 216.625 5.95833 216.625 4.75C217.708 4.58333 218.521 4.54167 219.062 4.625C219.646 4.66667 220.042 4.8125 220.25 5.0625C220.458 5.3125 220.542 5.6875 220.5 6.1875C220.5 6.64583 220.438 7.22917 220.312 7.9375C220.229 8.64583 220.146 9.5 220.062 10.5C220.021 11.5 220.062 12.625 220.188 13.875L227.688 13.625V16.6875C227.354 16.6875 226.833 16.7083 226.125 16.75C225.417 16.7917 224.646 16.8333 223.812 16.875C223.021 16.9167 222.271 16.9583 221.562 17C220.896 17.0417 220.396 17.125 220.062 17.25C219.729 18.75 219.375 20.3542 219 22.0625C218.625 23.7708 218.375 25.4583 218.25 27.125C218.125 28.7917 218.167 30.3542 218.375 31.8125C218.583 33.2292 219.104 34.4167 219.938 35.375C220.771 36.2917 221.958 36.9375 223.5 37.3125C225.042 37.6458 227.083 37.5208 229.625 36.9375C229.542 37.5625 229.292 38.0833 228.875 38.5C228.5 38.875 228.042 39.1875 227.5 39.4375C227 39.6458 226.458 39.8125 225.875 39.9375C225.292 40.0208 224.771 40.0625 224.312 40.0625C222.188 40.0625 220.5 39.6875 219.25 38.9375C218 38.1458 217.062 37.125 216.438 35.875C215.812 34.625 215.417 33.2083 215.25 31.625C215.083 30 215.021 28.3542 215.062 26.6875C215.146 25.0208 215.271 23.375 215.438 21.75C215.604 20.125 215.688 18.6458 215.688 17.3125ZM231.75 15.75C231.75 15.5417 231.875 15.3333 232.125 15.125C232.417 14.9167 232.75 14.75 233.125 14.625C233.542 14.5 233.938 14.4167 234.312 14.375C234.688 14.3333 234.958 14.3958 235.125 14.5625C235.375 19.7292 235.854 23.8542 236.562 26.9375C237.312 29.9792 238.146 32.2083 239.062 33.625C240.021 35.0417 241.042 35.7708 242.125 35.8125C243.208 35.8125 244.271 35.3542 245.312 34.4375C246.354 33.4792 247.312 32.1875 248.188 30.5625C249.104 28.9375 249.833 27.1875 250.375 25.3125C250.958 23.4375 251.312 21.5625 251.438 19.6875C251.562 17.8125 251.396 16.1458 250.938 14.6875L254.688 14.25C254.729 14.875 254.833 15.9167 255 17.375C255.208 18.7917 255.417 20.4167 255.625 22.25C255.875 24.0417 256.146 25.9167 256.438 27.875C256.729 29.8333 256.979 31.6667 257.188 33.375C257.396 35.0417 257.583 36.4792 257.75 37.6875C257.917 38.8542 258 39.5833 258 39.875H255.312L252.375 29.0625C251.792 30.5208 251.083 31.9167 250.25 33.25C249.417 34.5833 248.5 35.75 247.5 36.75C246.542 37.75 245.521 38.5417 244.438 39.125C243.354 39.6667 242.271 39.8958 241.188 39.8125C240.146 39.6875 239.125 39.1875 238.125 38.3125C237.125 37.4375 236.188 36.0625 235.312 34.1875C234.479 32.2708 233.75 29.8125 233.125 26.8125C232.5 23.8125 232.042 20.125 231.75 15.75ZM260 15.625C260.5 15.4167 260.938 15.375 261.312 15.5C261.688 15.625 262 15.8542 262.25 16.1875C262.5 16.5208 262.688 16.9167 262.812 17.375C262.938 17.7917 263.042 18.2083 263.125 18.625C263.667 17.7083 264.438 16.9792 265.438 16.4375C266.479 15.8542 267.583 15.4792 268.75 15.3125C269.917 15.1042 271.083 15.0625 272.25 15.1875C273.417 15.2708 274.396 15.5208 275.188 15.9375C276.021 16.3125 276.604 16.8542 276.938 17.5625C277.271 18.2292 277.188 19.0208 276.688 19.9375C275.604 19.3125 274.458 18.8125 273.25 18.4375C272.083 18.0625 270.938 17.9375 269.812 18.0625C268.688 18.1875 267.646 18.625 266.688 19.375C265.729 20.0833 264.938 21.2292 264.312 22.8125C263.688 24.3958 263.292 26.5 263.125 29.125C263 31.7083 263.188 34.9375 263.688 38.8125H261.312C261.312 38.8125 261.271 38.4792 261.188 37.8125C261.146 37.1042 261.083 36.1875 261 35.0625C260.958 33.9375 260.875 32.6875 260.75 31.3125C260.667 29.9375 260.583 28.5417 260.5 27.125C260.417 25.7083 260.333 24.3542 260.25 23.0625C260.208 21.7292 260.146 20.5833 260.062 19.625C260.062 19.5 260.042 19.25 260 18.875C260 18.5 260 18.1042 260 17.6875C260 17.2292 260 16.8125 260 16.4375C260 16.0625 260 15.7917 260 15.625ZM279.5 34.625C279.5 32.25 280.146 30.5208 281.438 29.4375C282.771 28.3542 284.5 27.8125 286.625 27.8125C287.458 27.8125 288.229 27.8333 288.938 27.875C289.688 27.9167 290.396 28.0208 291.062 28.1875C291.729 28.3542 292.375 28.6042 293 28.9375C293.667 29.2708 294.354 29.75 295.062 30.375C295.062 30.25 295.062 30 295.062 29.625C295.104 29.2083 295.125 28.7708 295.125 28.3125C295.125 27.8542 295.125 27.4375 295.125 27.0625C295.125 26.6458 295.125 26.3542 295.125 26.1875C295.083 25.4375 295.062 24.4792 295.062 23.3125C295.062 22.1042 294.958 20.875 294.75 19.625C294.583 18.375 294.208 17.1875 293.625 16.0625C293.083 14.9375 292.188 14.0833 290.938 13.5C290.062 13.5 289.25 13.6458 288.5 13.9375C287.75 14.2292 287 14.5417 286.25 14.875C285.5 15.2083 284.75 15.5208 284 15.8125C283.25 16.0625 282.438 16.1875 281.562 16.1875C281.562 15.1458 281.875 14.2917 282.5 13.625C283.167 12.9167 283.958 12.375 284.875 12C285.792 11.625 286.75 11.375 287.75 11.25C288.75 11.125 289.625 11.0625 290.375 11.0625C291.125 11.1875 291.812 11.3333 292.438 11.5C293.104 11.6667 293.708 12 294.25 12.5C294.833 13 295.354 13.7708 295.812 14.8125C296.312 15.8125 296.729 17.2292 297.062 19.0625C297.438 20.8958 297.75 23.2292 298 26.0625C298.292 28.8542 298.521 32.2917 298.688 36.375C298.771 36.9167 298.583 37.3958 298.125 37.8125C297.708 38.1875 297.125 38.5208 296.375 38.8125C295.625 39.0625 294.771 39.2917 293.812 39.5C292.896 39.6667 291.958 39.7917 291 39.875C290.042 39.9583 289.125 40.0208 288.25 40.0625C287.375 40.1042 286.646 40.125 286.062 40.125C285.312 40.125 284.542 40 283.75 39.75C283 39.5 282.292 39.1458 281.625 38.6875C281 38.1875 280.479 37.6042 280.062 36.9375C279.688 36.2292 279.5 35.4583 279.5 34.625ZM287.625 30.25C285.542 30.8333 284.083 31.5417 283.25 32.375C282.417 33.1667 282.042 33.9375 282.125 34.6875C282.25 35.4375 282.75 36.125 283.625 36.75C284.5 37.3333 285.562 37.7292 286.812 37.9375C288.062 38.1042 289.417 38 290.875 37.625C292.333 37.2083 293.729 36.4167 295.062 35.25C294.562 34.0417 294.062 33.125 293.562 32.5C293.062 31.8333 292.521 31.3333 291.938 31C291.354 30.6667 290.708 30.4583 290 30.375C289.292 30.2917 288.5 30.25 287.625 30.25ZM302.062 39.6875C301.979 39.0208 301.896 38.0625 301.812 36.8125C301.771 35.5208 301.708 34.0833 301.625 32.5C301.583 30.875 301.542 29.1875 301.5 27.4375C301.458 25.6875 301.417 24.0208 301.375 22.4375C301.333 20.8542 301.271 19.4375 301.188 18.1875C301.146 16.8958 301.062 15.9167 300.938 15.25C300.938 15.2083 300.917 15.1042 300.875 14.9375C300.875 14.7708 300.854 14.5833 300.812 14.375C300.812 14.1667 300.812 14 300.812 13.875C300.812 13.7083 300.812 13.5833 300.812 13.5C301.438 13 301.958 12.8333 302.375 13C302.833 13.1667 303.208 13.5417 303.5 14.125C303.792 14.6667 304 15.3542 304.125 16.1875C304.25 17.0208 304.333 17.8542 304.375 18.6875C304.458 19.5208 304.5 20.2917 304.5 21C304.5 21.6667 304.5 22.1458 304.5 22.4375C304.583 21.7292 304.708 20.8958 304.875 19.9375C305.042 18.9792 305.292 18 305.625 17C305.958 16 306.354 15.0208 306.812 14.0625C307.312 13.0625 307.917 12.1875 308.625 11.4375C309.333 10.6875 310.125 10.1042 311 9.6875C311.917 9.27083 312.958 9.10417 314.125 9.1875C315.958 9.27083 317.458 9.77083 318.625 10.6875C319.833 11.6042 320.771 12.8333 321.438 14.375C322.146 15.9167 322.646 17.6875 322.938 19.6875C323.271 21.6875 323.479 23.8125 323.562 26.0625C323.688 28.3125 323.729 30.6042 323.688 32.9375C323.646 35.2292 323.625 37.4375 323.625 39.5625C323.25 39.6458 322.875 39.7917 322.5 40C322.125 40.1667 321.812 40.2292 321.562 40.1875C321.312 40.1875 321.125 40.0208 321 39.6875C320.917 39.3125 320.958 38.6042 321.125 37.5625C321.167 36.8125 321.229 35.6667 321.312 34.125C321.438 32.5417 321.479 30.7917 321.438 28.875C321.438 26.9583 321.333 24.9792 321.125 22.9375C320.917 20.8958 320.521 19.0417 319.938 17.375C319.396 15.6667 318.604 14.2917 317.562 13.25C316.521 12.1667 315.167 11.625 313.5 11.625C311.792 12.3333 310.354 13.6667 309.188 15.625C308.062 17.5833 307.146 19.875 306.438 22.5C305.771 25.125 305.271 27.9792 304.938 31.0625C304.646 34.1042 304.479 37.0833 304.438 40C304.354 39.9583 304.188 39.9375 303.938 39.9375C303.729 39.9375 303.479 39.9375 303.188 39.9375C302.938 39.8958 302.688 39.8542 302.438 39.8125C302.229 39.7708 302.104 39.7292 302.062 39.6875ZM334.125 17.3125C333.75 17.1875 333.229 17.1458 332.562 17.1875C331.938 17.1875 331.25 17.2292 330.5 17.3125C329.792 17.3542 329.104 17.4167 328.438 17.5C327.771 17.5833 327.208 17.625 326.75 17.625C326.542 17.625 326.396 17.3333 326.312 16.75C326.271 16.125 326.188 15.2917 326.062 14.25L334.875 13.625C335 12.1667 335.083 11.125 335.125 10.5C335.167 9.875 335.167 9.35417 335.125 8.9375C335.125 8.47917 335.104 7.97917 335.062 7.4375C335.062 6.85417 335.062 5.95833 335.062 4.75C336.146 4.58333 336.958 4.54167 337.5 4.625C338.083 4.66667 338.479 4.8125 338.688 5.0625C338.896 5.3125 338.979 5.6875 338.938 6.1875C338.938 6.64583 338.875 7.22917 338.75 7.9375C338.667 8.64583 338.583 9.5 338.5 10.5C338.458 11.5 338.5 12.625 338.625 13.875L346.125 13.625V16.6875C345.792 16.6875 345.271 16.7083 344.562 16.75C343.854 16.7917 343.083 16.8333 342.25 16.875C341.458 16.9167 340.708 16.9583 340 17C339.333 17.0417 338.833 17.125 338.5 17.25C338.167 18.75 337.812 20.3542 337.438 22.0625C337.062 23.7708 336.812 25.4583 336.688 27.125C336.562 28.7917 336.604 30.3542 336.812 31.8125C337.021 33.2292 337.542 34.4167 338.375 35.375C339.208 36.2917 340.396 36.9375 341.938 37.3125C343.479 37.6458 345.521 37.5208 348.062 36.9375C347.979 37.5625 347.729 38.0833 347.312 38.5C346.938 38.875 346.479 39.1875 345.938 39.4375C345.438 39.6458 344.896 39.8125 344.312 39.9375C343.729 40.0208 343.208 40.0625 342.75 40.0625C340.625 40.0625 338.938 39.6875 337.688 38.9375C336.438 38.1458 335.5 37.125 334.875 35.875C334.25 34.625 333.854 33.2083 333.688 31.625C333.521 30 333.458 28.3542 333.5 26.6875C333.583 25.0208 333.708 23.375 333.875 21.75C334.042 20.125 334.125 18.6458 334.125 17.3125ZM353.5 34.9375C354.25 34.9375 354.938 35.0833 355.562 35.375C356.229 35.6667 356.875 36 357.5 36.375C358.125 36.7083 358.75 37.0208 359.375 37.3125C360.042 37.5625 360.75 37.6875 361.5 37.6875C362.375 37.6875 363.271 37.5417 364.188 37.25C365.146 36.9167 366.021 36.4792 366.812 35.9375C367.604 35.3542 368.25 34.6667 368.75 33.875C369.25 33.0417 369.5 32.1458 369.5 31.1875C369.542 30.8958 369.542 30.5417 369.5 30.125C369.5 29.7083 369.375 29.2917 369.125 28.875C368.875 28.4167 368.458 28 367.875 27.625C367.292 27.2083 366.438 26.8958 365.312 26.6875C364.229 26.4792 362.854 26.375 361.188 26.375C359.521 26.3333 357.458 26.4792 355 26.8125C354.375 26.8125 353.771 26.6458 353.188 26.3125C352.604 25.9375 352.083 25.5 351.625 25C351.167 24.4583 350.792 23.8958 350.5 23.3125C350.208 22.6875 350.062 22.1042 350.062 21.5625C350.062 19.9375 350.396 18.625 351.062 17.625C351.771 16.5833 352.667 15.7708 353.75 15.1875C354.833 14.5625 356.042 14.125 357.375 13.875C358.708 13.625 360.062 13.5 361.438 13.5C362.062 13.5 362.771 13.5417 363.562 13.625C364.396 13.6667 365.146 13.8333 365.812 14.125C366.521 14.375 367.104 14.7917 367.562 15.375C368.062 15.9583 368.312 16.7708 368.312 17.8125C368.229 18.5208 368.104 18.9583 367.938 19.125C367.812 19.25 367.604 19.2083 367.312 19C367.062 18.75 366.75 18.4167 366.375 18C366 17.5833 365.542 17.1875 365 16.8125C364.5 16.3958 363.875 16.0833 363.125 15.875C362.417 15.6667 361.604 15.6667 360.688 15.875C359.729 15.875 358.771 15.9792 357.812 16.1875C356.854 16.3542 355.979 16.6667 355.188 17.125C354.438 17.5833 353.812 18.2083 353.312 19C352.854 19.7917 352.625 20.7917 352.625 22C352.625 22.625 352.896 23.0625 353.438 23.3125C354.021 23.5208 354.771 23.625 355.688 23.625C356.646 23.625 357.708 23.6042 358.875 23.5625C360.083 23.4792 361.312 23.4375 362.562 23.4375C363.812 23.4375 365.021 23.5417 366.188 23.75C367.354 23.9167 368.375 24.2917 369.25 24.875C370.167 25.4167 370.875 26.2083 371.375 27.25C371.875 28.2917 372.062 29.6458 371.938 31.3125C371.938 32.5208 371.583 33.6667 370.875 34.75C370.208 35.8333 369.333 36.7917 368.25 37.625C367.208 38.4167 366.042 39.0417 364.75 39.5C363.458 39.9583 362.208 40.125 361 40C360.5 39.9583 359.812 39.8333 358.938 39.625C358.104 39.375 357.271 39.0417 356.438 38.625C355.646 38.2083 354.958 37.7083 354.375 37.125C353.792 36.5 353.5 35.7708 353.5 34.9375Z" fill="url(#paint0_linear)"/>
<defs>
<linearGradient id="paint0_linear" x1="374" y1="20" x2="-26.7865" y2="20" gradientUnits="userSpaceOnUse">
<stop stop-color="#0500F7"/>
<stop offset="0.516665" stop-color="#9309FF"/>
<stop offset="0.996862" stop-color="#FF03E6"/>
<stop offset="0.996962" stop-opacity="0"/>
</linearGradient>
</defs>
</svg>
